<svg width="2018" height="1791" viewBox="0 0 2018 1791" fill="none" xmlns="http://www.w3.org/2000/svg">
<g clip-path="url(#clip0)">
<path d="M446 1260C403.717 1260 348.717 1260 281 1260C179.424 1260 179.545 1348.61 281 1353C382.455 1357.39 376.515 1449.7 281 1449C185.485 1448.3 184.636 1448.18 104 1449C23.364 1449.82 24.03 1564 104 1566C183.97 1568 389.182 1564 479 1566C568.818 1568 564.939 1676.85 479 1680C393.061 1683.15 349.848 1680 251 1680C152.152 1680 151.364 1791 251 1791C350.636 1791 1800.88 1779.45 1925 1776C2049.12 1772.55 2046.33 1641 1925 1641C1844.11 1641 1722.44 1641 1560 1641H1445C1356.7 1639.21 1349.12 1533 1445 1533C1606.7 1533 1698.88 1535.88 1799 1533C1899.12 1530.12 1909.49 1419 1799 1419C1688.51 1419 1649.61 1353 1763 1353C1876.39 1353 1868 1269 1763 1260H1658H446Z" fill="#60B2BE"/>
<path d="M724.363 1260C707.82 1260 686.303 1260 659.81 1260C620.071 1260 620.118 1332.42 659.81 1336.01C699.502 1339.6 697.178 1415.04 659.81 1414.47C622.442 1413.9 622.11 1413.81 590.563 1414.47C559.016 1415.14 559.276 1508.47 590.563 1510.1C621.849 1511.74 702.134 1508.47 737.273 1510.1C772.412 1511.74 770.895 1600.7 737.273 1603.28C703.651 1605.85 686.745 1603.28 648.073 1603.28C609.401 1603.28 609.093 1694 648.073 1694C687.054 1694 1254.43 1684.56 1302.99 1681.74C1351.55 1678.92 1350.46 1571.4 1302.99 1571.4C1271.34 1571.4 1223.74 1571.4 1160.19 1571.4H1115.2C1080.65 1569.94 1077.69 1483.13 1115.2 1483.13C1178.46 1483.13 1214.52 1485.48 1253.69 1483.13C1292.86 1480.78 1296.92 1389.95 1253.69 1389.95C1210.47 1389.95 1195.25 1336.01 1239.61 1336.01C1283.97 1336.01 1280.69 1267.36 1239.61 1260H1198.53H724.363Z" fill="#76D6E6"/>
<path d="M158 1237.42H846C851.519 1237.42 856 1241.9 856 1247.42V1252.42C856 1257.94 851.519 1262.42 846 1262.42H158C152.481 1262.42 148 1257.94 148 1252.42V1247.42C148 1241.9 152.481 1237.42 158 1237.42Z" fill="#404040"/>
<path d="M995 1365H1550C1555.52 1365 1560 1369.48 1560 1375V1380C1560 1385.52 1555.52 1390 1550 1390H995C989.481 1390 985 1385.52 985 1380V1375C985 1369.48 989.481 1365 995 1365Z" fill="#404040"/>
<path d="M790 1477H1345C1350.52 1477 1355 1481.48 1355 1487V1492C1355 1497.52 1350.52 1502 1345 1502H790C784.481 1502 780 1497.52 780 1492V1487C780 1481.48 784.481 1477 790 1477Z" fill="#404040"/>
<path d="M886 1365H927.5C933.019 1365 937.5 1369.48 937.5 1375V1380C937.5 1385.52 933.019 1390 927.5 1390H886C880.481 1390 876 1385.52 876 1380V1375C876 1369.48 880.481 1365 886 1365Z" fill="#404040"/>
<path d="M1389.25 1474.5H1411C1416.52 1474.5 1421 1478.98 1421 1484.5V1489.5C1421 1495.02 1416.52 1499.5 1411 1499.5H1389.25C1383.73 1499.5 1379.25 1495.02 1379.25 1489.5V1484.5C1379.25 1478.98 1383.73 1474.5 1389.25 1474.5Z" fill="#404040"/>
<path d="M728 1477H749.75C755.269 1477 759.75 1481.48 759.75 1487V1492C759.75 1497.52 755.269 1502 749.75 1502H728C722.481 1502 718 1497.52 718 1492V1487C718 1481.48 722.481 1477 728 1477Z" fill="#404040"/>
<path d="M10 1237.42H99C104.519 1237.42 109 1241.9 109 1247.42V1252.42C109 1257.94 104.519 1262.42 99 1262.42H10C4.481 1262.42 0 1257.94 0 1252.42V1247.42C0 1241.9 4.481 1237.42 10 1237.42Z" fill="#404040"/>
<path d="M1831 1237.42H1885C1890.52 1237.42 1895 1241.9 1895 1247.42V1252.42C1895 1257.94 1890.52 1262.42 1885 1262.42H1831C1825.48 1262.42 1821 1257.94 1821 1252.42V1247.42C1821 1241.9 1825.48 1237.42 1831 1237.42Z" fill="#404040"/>
<path d="M1679 1237.42H1733C1738.52 1237.42 1743 1241.9 1743 1247.42V1252.42C1743 1257.94 1738.52 1262.42 1733 1262.42H1679C1673.48 1262.42 1669 1257.94 1669 1252.42V1247.42C1669 1241.9 1673.48 1237.42 1679 1237.42Z" fill="#404040"/>
<path d="M1575.54 1249.82C1573.74 1242.9 1572.14 1235.93 1570.75 1228.92C1569.54 1222.8 1568.55 1216.64 1567.78 1210.45C1567.56 1208.65 1567.35 1206.84 1567.17 1205.02C1567 1203.29 1566.84 1201.56 1566.71 1199.82C1566.53 1197.47 1566.39 1195.11 1566.3 1192.75C1566.2 1190.53 1566.15 1188.31 1566.14 1186.09C1566.12 1180.92 1566.34 1175.75 1566.81 1170.6C1567.22 1166.09 1567.87 1161.6 1568.77 1157.16C1569.57 1153.17 1570.59 1149.23 1571.83 1145.35C1571.9 1145.13 1571.97 1144.9 1572.05 1144.68C1576.61 1149.17 1581.31 1153.51 1586.13 1157.71C1590.08 1161.15 1594.17 1164.42 1598.39 1167.53C1601.79 1170.05 1605.3 1172.43 1608.9 1174.66C1611.85 1176.49 1614.9 1178.18 1618.01 1179.72C1620.53 1180.96 1623.1 1182.08 1625.73 1183.08C1627.97 1183.94 1630.27 1184.67 1632.59 1185.27C1634.64 1185.8 1636.71 1186.21 1638.79 1186.51C1640.67 1186.78 1642.56 1186.94 1644.46 1186.97C1646.23 1187.01 1648 1186.93 1649.77 1186.74C1651.45 1186.57 1653.12 1186.28 1654.76 1185.88C1656.38 1185.49 1657.97 1185 1659.53 1184.4C1660.86 1183.89 1662.15 1183.31 1663.42 1182.66V1249.82H1575.54Z" fill="#7B5A49" stroke="#404040" stroke-width="25" stroke-miterlimit="3" stroke-linecap="square"/>
<path d="M1617 1193C1607.33 1216.75 1605 1231.42 1610 1237H1586C1578.25 1214.38 1576.25 1191.71 1580 1169C1599.33 1183.96 1611.67 1191.96 1617 1193Z" fill="#6B4B38"/>
<path d="M1509.58 1249.82H788.75C788.74 1249.82 788.74 1249.82 788.74 1249.82C786.66 1249.86 784.58 1249.9 782.5 1249.92V1249.82H782H764.228C755.416 1249.63 746.611 1249.25 737.82 1248.66C724.46 1247.77 711.16 1246.14 697.98 1243.77C690.45 1242.42 682.97 1240.78 675.56 1238.85C669.1 1237.17 662.71 1235.2 656.42 1232.96C650.84 1230.97 645.36 1228.74 639.98 1226.27C635.14 1224.05 630.42 1221.59 625.82 1218.9C620.43 1215.76 615.25 1212.27 610.3 1208.47C605.73 1204.96 601.41 1201.14 597.36 1197.03C593.48 1193.1 589.88 1188.9 586.57 1184.47C583.28 1180.06 580.3 1175.43 577.65 1170.62C574.93 1165.66 572.55 1160.52 570.52 1155.24C568.36 1149.58 566.55 1143.78 565.13 1137.89C563.54 1131.36 562.38 1124.74 561.64 1118.07C560.8 1110.44 560.39 1102.78 560.4 1095.11C562.48 1079.38 563.9 1063.57 564.64 1047.72C565.35 1032.75 565.38 1017.76 564.74 1002.78C564.217 990.677 563.239 978.596 561.802 966.567C561.908 966.542 562.014 966.516 562.12 966.49L562.61 966.37L562.37 965.39L561.88 965.51C561.817 965.526 561.754 965.541 561.691 965.556C561.454 963.66 561.213 961.764 560.96 959.87C559.11 945.99 556.62 932.21 553.5 918.56C550.4 905.03 546.68 891.65 542.35 878.46C537.99 865.17 533.02 852.09 527.46 839.26C521.77 826.11 515.47 813.22 508.59 800.65C501.58 787.82 494.02 775.3 485.93 763.13H938.16L969.36 880.74H1294.63L1327.93 799.17L1751.34 763.19L1672.54 1075.8C1665.89 1076.58 1659.27 1077.66 1652.72 1079.04C1647.07 1080.22 1641.48 1081.71 1635.99 1083.5C1631.24 1085.05 1626.57 1086.86 1622 1088.92C1617.95 1090.75 1614.02 1092.82 1610.22 1095.13C1606.2 1097.58 1602.36 1100.31 1598.73 1103.3C1595.33 1106.11 1592.14 1109.17 1589.2 1112.47C1586.32 1115.7 1583.69 1119.16 1581.33 1122.79C1578.91 1126.53 1576.77 1130.44 1574.93 1134.49C1573.37 1137.93 1572.02 1141.45 1570.87 1145.05C1569.63 1148.96 1568.6 1152.94 1567.79 1156.96C1566.88 1161.44 1566.23 1165.96 1565.81 1170.51C1565.34 1175.69 1565.12 1180.9 1565.14 1186.1C1565.15 1188.33 1565.2 1190.56 1565.3 1192.8C1565.39 1195.17 1565.53 1197.53 1565.71 1199.9C1565.85 1201.64 1566 1203.39 1566.18 1205.12C1566.36 1206.94 1566.56 1208.76 1566.79 1210.58C1567.56 1216.79 1568.56 1222.97 1569.77 1229.11C1571.14 1236.06 1572.73 1242.97 1574.51 1249.82H1510.08H1509.58Z" fill="#6B4A37" stroke="#404040" stroke-width="25" stroke-miterlimit="3" stroke-linecap="square"/>
<path d="M1694.63 932H566.635V975.524H1694.63V932Z" fill="#8C6B5A"/>
<path d="M1591.2 1096H568.635V1122.79H1591.2V1096Z" fill="#8C6B5A"/>
<path d="M545.35 913.74H870.525C876.044 913.74 880.525 917.608 880.525 922.372C880.525 927.136 876.044 931.004 870.525 931.004H545.35V913.74Z" fill="#404040"/>
<path d="M568.635 1122.73H1207.05C1214.75 1122.73 1221 1126.6 1221 1131.37C1221 1136.13 1214.75 1140 1207.05 1140H568.635V1122.73Z" fill="#404040"/>
<path d="M1273.25 1122.73H1382.61C1388.13 1122.73 1392.61 1126.6 1392.61 1131.37C1392.61 1136.13 1388.13 1140 1382.61 1140H1273.25C1267.73 1140 1263.25 1136.13 1263.25 1131.37C1263.25 1126.6 1267.73 1122.73 1273.25 1122.73Z" fill="#404040"/>
<path d="M1005 914.736H1436C1441.52 914.736 1446 918.604 1446 923.368C1446 928.132 1441.52 932 1436 932H1005C999.481 932 995 928.132 995 923.368C995 918.604 999.481 914.736 1005 914.736Z" fill="#404040"/>
<path d="M1509.94 1249.3H789.115C789.105 1249.3 789.105 1249.3 789.105 1249.3C787.025 1249.34 784.945 1249.37 782.865 1249.39V1249.3H782.365H764.593C755.781 1249.11 746.976 1248.72 738.185 1248.14C724.825 1247.25 711.525 1245.62 698.345 1243.25C690.815 1241.9 683.335 1240.26 675.925 1238.33C669.465 1236.65 663.075 1234.68 656.785 1232.44C651.205 1230.45 645.725 1228.22 640.345 1225.75C635.505 1223.53 630.785 1221.07 626.185 1218.38C620.795 1215.24 615.615 1211.75 610.665 1207.95C606.095 1204.44 601.775 1200.62 597.725 1196.51C593.845 1192.58 590.245 1188.38 586.935 1183.95C583.645 1179.54 580.665 1174.91 578.015 1170.1C575.295 1165.14 572.915 1160 570.885 1154.72C568.725 1149.06 566.915 1143.26 565.495 1137.37C563.905 1130.84 562.745 1124.22 562.005 1117.55C561.165 1109.92 560.755 1102.26 560.765 1094.59C562.845 1078.86 564.265 1063.05 565.005 1047.2C565.715 1032.23 565.745 1017.24 565.105 1002.26C564.582 990.153 563.604 978.072 562.167 966.043C562.273 966.018 562.379 965.992 562.485 965.966L562.975 965.846L562.735 964.866L562.245 964.986C562.182 965.001 562.119 965.017 562.056 965.032C561.819 963.136 561.578 961.24 561.325 959.346C559.475 945.466 556.985 931.686 553.865 918.036C550.765 904.506 547.045 891.126 542.715 877.936C538.355 864.646 533.385 851.566 527.825 838.736C522.135 825.586 515.835 812.696 508.955 800.126C501.945 787.296 494.385 774.776 486.295 762.606H938.525L969.725 880.216H1294.99L1328.29 798.646L1751.7 762.666L1672.9 1075.28C1666.25 1076.06 1659.63 1077.14 1653.08 1078.52C1647.43 1079.7 1641.84 1081.19 1636.35 1082.98C1631.6 1084.53 1626.93 1086.34 1622.36 1088.4C1618.31 1090.23 1614.38 1092.3 1610.58 1094.61C1606.56 1097.06 1602.72 1099.79 1599.09 1102.78C1595.69 1105.59 1592.5 1108.65 1589.56 1111.95C1586.68 1115.18 1584.05 1118.64 1581.69 1122.27C1579.27 1126.01 1577.13 1129.92 1575.29 1133.97C1573.73 1137.41 1572.38 1140.93 1571.23 1144.53C1569.99 1148.44 1568.96 1152.42 1568.15 1156.44C1567.24 1160.92 1566.59 1165.44 1566.17 1169.99C1565.7 1175.17 1565.48 1180.38 1565.5 1185.58C1565.51 1187.81 1565.56 1190.04 1565.66 1192.28C1565.75 1194.65 1565.89 1197.01 1566.07 1199.38C1566.21 1201.12 1566.36 1202.87 1566.54 1204.6C1566.72 1206.42 1566.92 1208.24 1567.15 1210.06C1567.92 1216.27 1568.92 1222.45 1570.13 1228.59C1571.5 1235.54 1573.09 1242.45 1574.87 1249.3H1510.44H1509.94Z" stroke="#404040" stroke-width="25" stroke-miterlimit="3" stroke-linecap="square"/>
<path d="M1534.36 818.74H1765.18C1783.29 818.74 1798 833.446 1798 851.559V933.605C1798 951.719 1783.29 966.424 1765.18 966.424H1534.36C1516.24 966.424 1501.54 951.719 1501.54 933.605V851.559C1501.54 833.446 1516.24 818.74 1534.36 818.74Z" fill="#8C6B5A"/>
<path d="M1534.36 818.74H1765.18C1783.29 818.74 1798 833.446 1798 851.559V933.605C1798 951.719 1783.29 966.424 1765.18 966.424H1534.36C1516.24 966.424 1501.54 951.719 1501.54 933.605V851.559C1501.54 833.446 1516.24 818.74 1534.36 818.74Z" stroke="#404040" stroke-width="20" stroke-miterlimit="2" stroke-linecap="square"/>
<path d="M1609.73 823C1645.03 864.333 1633.12 911 1574 963H1768.56C1809.15 921.333 1809.15 874.667 1768.56 823H1609.73Z" fill="#77533F"/>
<path d="M1548.9 884.094C1548.9 894.061 1548.9 904.028 1548.9 913.995H1574C1574 904.692 1574 894.725 1574 884.094C1574 868.147 1548.9 869.144 1548.9 884.094Z" fill="#6B4A37" stroke="#404040" stroke-width="10" stroke-miterlimit="3" stroke-linecap="square"/>
<path d="M1640.67 884.094C1640.67 894.061 1640.67 904.028 1640.67 913.995H1665.77C1665.77 904.692 1665.77 894.725 1665.77 884.094C1665.77 868.147 1640.67 869.144 1640.67 884.094Z" fill="#6B4A37" stroke="#404040" stroke-width="10" stroke-miterlimit="3" stroke-linecap="square"/>
<path d="M1507 856H1798" stroke="#404040" stroke-width="10" stroke-miterlimit="3" stroke-linecap="square"/>
<path d="M1727 884.094C1727 894.061 1727 904.028 1727 913.995H1752.1C1752.1 904.692 1752.1 894.725 1752.1 884.094C1752.1 868.147 1727 869.144 1727 884.094Z" fill="#6B4A37" stroke="#404040" stroke-width="10" stroke-miterlimit="3" stroke-linecap="square"/>
<path d="M1508 936H1790" stroke="#404040" stroke-width="10" stroke-miterlimit="3" stroke-linecap="square"/>
<path d="M1532.36 819H1763.18C1781.29 819 1796 833.706 1796 851.819V933.865C1796 951.979 1781.29 966.684 1763.18 966.684H1532.36C1514.24 966.684 1499.54 951.979 1499.54 933.865V851.819C1499.54 833.706 1514.24 819 1532.36 819Z" stroke="#404040" stroke-width="20" stroke-miterlimit="2" stroke-linecap="square"/>
<path d="M740.234 1249.82C739.406 1249.77 738.578 1249.71 737.75 1249.66C724.35 1248.77 711.02 1247.13 697.81 1244.76C690.25 1243.4 682.74 1241.75 675.31 1239.82C668.82 1238.13 662.4 1236.15 656.08 1233.9C650.48 1231.9 644.97 1229.66 639.57 1227.18C634.7 1224.94 629.94 1222.47 625.31 1219.77C619.89 1216.6 614.67 1213.09 609.69 1209.27C605.09 1205.73 600.73 1201.87 596.65 1197.74C592.74 1193.77 589.1 1189.54 585.77 1185.07C582.45 1180.63 579.45 1175.96 576.78 1171.1C574.03 1166.1 571.63 1160.92 569.59 1155.6C567.41 1149.9 565.59 1144.06 564.15 1138.13C562.56 1131.56 561.39 1124.89 560.65 1118.18C559.8 1110.49 559.38 1102.77 559.4 1095.04C561.48 1079.32 562.9 1063.51 563.64 1047.67C564.35 1032.73 564.38 1017.77 563.74 1002.83C563.219 990.785 562.253 978.768 560.825 966.803C551.199 969.133 541.481 971.057 531.69 972.56C521.51 974.12 511.26 975.22 500.97 975.85C490.56 976.5 480.13 976.67 469.71 976.38C458.99 976.07 448.29 975.3 437.64 974.06C426.54 972.77 415.5 970.99 404.56 968.73C392.96 966.34 381.46 963.47 370.1 960.13C357.89 956.54 345.84 952.45 333.96 947.87C321.92 943.22 310.05 938.15 298.37 932.67C307.42 941.8 316.29 951.12 324.96 960.6C333.21 969.62 341.23 978.83 349.02 988.24C351.18 990.85 353.32 993.47 355.44 996.12C357.49 998.67 359.52 1001.23 361.54 1003.81C364.28 1007.33 366.98 1010.88 369.64 1014.46C372.18 1017.87 374.68 1021.3 377.14 1024.77C380.5 1029.5 383.79 1034.29 386.99 1039.14C389.99 1043.67 392.91 1048.26 395.75 1052.89C399.6 1059.18 403.28 1065.56 406.8 1072.04C410.03 1077.97 413.09 1084 415.97 1090.1C419.69 1097.96 423.09 1105.97 426.16 1114.11C428.94 1121.45 431.39 1128.91 433.51 1136.47C435.45 1143.4 437.08 1150.41 438.4 1157.49C439.63 1164.07 440.54 1170.72 441.14 1177.39C441.7 1183.74 441.96 1190.11 441.92 1196.49C441.88 1202.64 441.53 1208.79 440.88 1214.91C440.24 1220.93 439.3 1226.91 438.07 1232.84C436.87 1238.57 435.41 1244.23 433.68 1249.82H740.234Z" fill="#7E5946" stroke="#404040" stroke-width="25" stroke-miterlimit="3" stroke-linecap="square"/>
<path d="M455 988.132C510.632 1115.19 528.839 1198.11 509.621 1236.9H631C577.728 1209.48 550.08 1166.01 548.057 1106.5C553.452 1048.99 554.463 1007.86 551.092 983.116C492.088 989.469 460.057 991.141 455 988.132Z" fill="#6B4B3C"/>
<path d="M564 1024C468 1030.33 401.333 1026 364 1011" stroke="#3E3E3E" stroke-width="10" stroke-miterlimit="3" stroke-linecap="square"/>
<path d="M675 1018.69C675 1028.65 675 1038.62 675 1048.59H720.198C720.198 1039.29 720.198 1029.32 720.198 1018.69C720.198 1002.74 675 1003.74 675 1018.69Z" fill="#404040"/>
<path d="M789.964 1018.69C789.964 1028.65 789.964 1038.62 789.964 1048.59H835.162C835.162 1039.29 835.162 1029.32 835.162 1018.69C835.162 1002.74 789.964 1003.74 789.964 1018.69Z" fill="#404040"/>
<path d="M904.904 1018.69C904.904 1028.65 904.904 1038.62 904.904 1048.59H950.102C950.102 1039.29 950.102 1029.32 950.102 1018.69C950.102 1002.74 904.904 1003.74 904.904 1018.69Z" fill="#404040"/>
<path d="M1019.84 1018.69C1019.84 1028.65 1019.84 1038.62 1019.84 1048.59H1065.04C1065.04 1039.29 1065.04 1029.32 1065.04 1018.69C1065.04 1002.74 1019.84 1003.74 1019.84 1018.69Z" fill="#404040"/>
<path d="M1134.96 1018.1C1134.96 1028.07 1134.96 1038.03 1134.96 1048H1180.16C1180.16 1038.7 1180.16 1028.73 1180.16 1018.1C1180.16 1002.15 1134.96 1003.15 1134.96 1018.1Z" fill="#404040"/>
<path d="M1249.92 1018.1C1249.92 1028.07 1249.92 1038.03 1249.92 1048H1295.12C1295.12 1038.7 1295.12 1028.73 1295.12 1018.1C1295.12 1002.15 1249.92 1003.15 1249.92 1018.1Z" fill="#404040"/>
<path d="M1364.86 1018.1C1364.86 1028.07 1364.86 1038.03 1364.86 1048H1410.06C1410.06 1038.7 1410.06 1028.73 1410.06 1018.1C1410.06 1002.15 1364.86 1003.15 1364.86 1018.1Z" fill="#404040"/>
<path d="M1479.8 1018.1C1479.8 1028.07 1479.8 1038.03 1479.8 1048H1525C1525 1038.7 1525 1028.73 1525 1018.1C1525 1002.15 1479.8 1003.15 1479.8 1018.1Z" fill="#404040"/>
<path d="M304 754C440.697 653.348 542.797 522.015 610.3 360" stroke="#404040" stroke-width="12" stroke-miterlimit="3" stroke-linecap="square"/>
<path d="M1525 484C1498.33 613.333 1475.67 694 1457 726" stroke="#404040" stroke-width="12" stroke-miterlimit="3" stroke-linecap="square"/>
<path d="M1136 396C1190 687.28 1230 848.1 1256 878.46" stroke="#3E3E3E" stroke-width="12" stroke-miterlimit="3" stroke-linecap="square"/>
<path d="M1118 210L986 878.46" stroke="#404040" stroke-width="12" stroke-miterlimit="3" stroke-linecap="square"/>
<path d="M1118 210L1082 878.46" stroke="#404040" stroke-width="12" stroke-miterlimit="3" stroke-linecap="square"/>
<path d="M1021 710H1090" stroke="#404040" stroke-width="12" stroke-miterlimit="3" stroke-linecap="square"/>
<path d="M1014 755H1088" stroke="#404040" stroke-width="12" stroke-miterlimit="3" stroke-linecap="square"/>
<path d="M1007 802H1080" stroke="#404040" stroke-width="12" stroke-miterlimit="3" stroke-linecap="square"/>
<path d="M639.98 260L782 703" stroke="#404040" stroke-width="12" stroke-miterlimit="3" stroke-linecap="square"/>
<path d="M639.98 260L898 703" stroke="#404040" stroke-width="12" stroke-miterlimit="3" stroke-linecap="square"/>
<path d="M754 609L819 571" stroke="#404040" stroke-width="12" stroke-miterlimit="3" stroke-linecap="square"/>
<path d="M769.167 648.667L834.167 610.667" stroke="#404040" stroke-width="12" stroke-miterlimit="3" stroke-linecap="square"/>
<path d="M742 574L799 542" stroke="#404040" stroke-width="12" stroke-miterlimit="3" stroke-linecap="square"/>
<path d="M1131 0C1135.97 0 1140 4.95299 1140 11.054V880.74H1122V11.054C1122 4.95299 1126.03 0 1131 0Z" fill="#404040"/>
<path d="M1013.14 87C994.476 125.308 994.476 164.265 1013.14 203.871H1254.68C1239.26 157.447 1239.26 118.49 1254.68 87H1013.14Z" fill="#555A60" stroke="#3E3E3E" stroke-width="15" stroke-miterlimit="3" stroke-linecap="square"/>
<path d="M939.35 288.185C907.755 353.024 907.755 418.963 939.35 486H1348.17C1322.07 407.423 1322.07 341.485 1348.17 288.185H939.35Z" fill="#555A60" stroke="#3E3E3E" stroke-width="15" stroke-miterlimit="3" stroke-linecap="square"/>
<path d="M944 292C911.5 353 911.5 416.333 944 482H962C933.5 410.5 933.5 347.167 962 292H944Z" fill="#5F6368"/>
<path d="M939.35 288.185C907.755 353.024 907.755 418.963 939.35 486H1348.17C1322.07 407.423 1322.07 341.485 1348.17 288.185H939.35Z" stroke="#3E3E3E" stroke-width="15" stroke-miterlimit="3" stroke-linecap="square"/>
<path d="M1013.4 547.26C993.959 587.163 993.959 627.743 1013.4 669H1265C1248.94 620.642 1248.94 580.062 1265 547.26H1013.4Z" fill="#555A60" stroke="#3E3E3E" stroke-width="15" stroke-miterlimit="3" stroke-linecap="square"/>
<path d="M1531.46 271H1532.54C1537.21 271 1541 274.79 1541 279.459V786.74H1523V279.459C1523 274.79 1526.79 271 1531.46 271Z" fill="#404040"/>
<path d="M1460.8 583.971C1449.61 606.934 1449.61 630.287 1460.8 654.029H1605.59C1596.35 626.2 1596.35 602.848 1605.59 583.971H1460.8Z" fill="#555A60" stroke="#3E3E3E" stroke-width="15" stroke-miterlimit="3" stroke-linecap="square"/>
<path d="M1423.81 411.681C1406.19 447.848 1406.19 484.629 1423.81 522.023H1651.85C1637.29 478.193 1637.29 441.412 1651.85 411.681H1423.81Z" fill="#555A60" stroke="#3E3E3E" stroke-width="15" stroke-miterlimit="3" stroke-linecap="square"/>
<path d="M1484.43 310.971C1476.4 327.438 1476.4 344.184 1484.43 361.209H1588.25C1581.63 341.253 1581.63 324.507 1588.25 310.971H1484.43Z" fill="#555A60" stroke="#3E3E3E" stroke-width="15" stroke-miterlimit="3" stroke-linecap="square"/>
<path d="M634.98 171C639.947 171 643.98 175.058 643.98 180.056V762.07H625.98V180.056C625.98 175.058 630.013 171 634.98 171Z" fill="#404040"/>
<path d="M560.782 589.942C549.593 612.905 549.593 636.258 560.782 660H705.57C696.326 632.171 696.326 608.819 705.57 589.942H560.782Z" fill="#555A60" stroke="#3E3E3E" stroke-width="15" stroke-miterlimit="3" stroke-linecap="square"/>
<path d="M532.128 422.212C515.252 456.844 515.252 492.063 532.128 527.87H750.489C736.548 485.9 736.548 450.681 750.489 422.212H532.128Z" fill="#555A60" stroke="#3E3E3E" stroke-width="15" stroke-miterlimit="3" stroke-linecap="square"/>
<path d="M537 429C523.667 462.583 523.667 492.917 537 520H546C533.167 491.833 533.167 461.5 546 429H537Z" fill="#5F6368"/>
<path d="M532.128 422.212C515.252 456.844 515.252 492.063 532.128 527.87H750.489C736.548 485.9 736.548 450.681 750.489 422.212H532.128Z" stroke="#3E3E3E" stroke-width="15" stroke-miterlimit="3" stroke-linecap="square"/>
<path d="M584.408 327.942C576.384 344.409 576.384 361.155 584.408 378.18H688.234C681.605 358.224 681.605 341.478 688.234 327.942H584.408Z" fill="#555A60" stroke="#3E3E3E" stroke-width="15" stroke-miterlimit="3" stroke-linecap="square"/>
<path d="M643.961 186V252H750.489L718.869 216.462L750.489 186H643.961Z" fill="#555A60" stroke="#404040" stroke-width="15" stroke-miterlimit="3" stroke-linecap="square"/>
<path fill-rule="evenodd" clip-rule="evenodd" d="M684.136 217.056L671.928 207.292L669.551 210.264L681.09 219.492L669.551 228.72L671.928 231.692L684.136 221.929L696.344 231.692L698.721 228.72L687.182 219.492L698.721 210.264L696.344 207.292L684.136 217.056ZM678.609 207.292C678.609 204.292 681.045 201.856 684.045 201.856C687.046 201.856 689.482 204.292 689.482 207.292C689.482 210.292 687.046 212.728 684.045 212.728C681.045 212.728 678.609 210.292 678.609 207.292Z" fill="white"/>
<path d="M485.93 762.07V706H938.16V762.07" stroke="#404040" stroke-width="15" stroke-miterlimit="3" stroke-linecap="square"/>
<path d="M565.52 706V762.07" stroke="#404040" stroke-width="8" stroke-miterlimit="3" stroke-linecap="square"/>
<path d="M783.045 705.04V761.11" stroke="#404040" stroke-width="8" stroke-miterlimit="3" stroke-linecap="square"/>
<path d="M708 703.965V760.035" stroke="#404040" stroke-width="8" stroke-miterlimit="3" stroke-linecap="square"/>
<path d="M858 704.525V760.595" stroke="#404040" stroke-width="8" stroke-miterlimit="3" stroke-linecap="square"/>
<path d="M1327.93 798.22V744L1752.66 706L1751.34 762.07" stroke="#404040" stroke-width="15" stroke-miterlimit="3" stroke-linecap="square"/>
<path d="M1392.5 736.965V793.035" stroke="#404040" stroke-width="8" stroke-miterlimit="3" stroke-linecap="square"/>
<path d="M1460 733.018V789.088" stroke="#404040" stroke-width="8" stroke-miterlimit="3" stroke-linecap="square"/>
<path d="M1598.39 718.965V775.035" stroke="#404040" stroke-width="8" stroke-miterlimit="3" stroke-linecap="square"/>
<path d="M1673 711.12V767.19" stroke="#404040" stroke-width="8" stroke-miterlimit="3" stroke-linecap="square"/>
<path d="M226.107 743.618L489.93 751.788L489.362 773.597L225.54 765.426C221.884 765.313 218.994 762.253 219.089 758.597L219.311 750.037C219.407 746.381 222.452 743.504 226.107 743.618Z" fill="#404040"/>
</g>
<defs>
<clipPath id="clip0">
<rect width="2017.05" height="1791" fill="white"/>
</clipPath>
</defs>
</svg>
