<?xml version="1.0" encoding="UTF-8" standalone="no"?><!-- Generator: Gravit.io --><svg xmlns="http://www.w3.org/2000/svg" xmlns:xlink="http://www.w3.org/1999/xlink" style="isolation:isolate" viewBox="292.496 59.896 1074.504 664.104" width="1074.504pt" height="664.104pt"><defs><clipPath id="_clipPath_wC4DrkgFptNf0QtFeCFOyMzSzWyLnOWp"><rect x="292.496" y="59.896" width="1074.504" height="664.104"/></clipPath></defs><g clip-path="url(#_clipPath_wC4DrkgFptNf0QtFeCFOyMzSzWyLnOWp)"><g><g><path d=" M 949.799 59.896 L 998.618 91.698 L 962.227 128.725 L 933.595 107.375 L 949.799 59.896 Z " fill="rgb(145,113,66)"/><path d="M 952.743 74.137 L 968.953 84.696 C 969.766 85.226 969.996 86.316 969.467 87.13 L 969.467 87.13 C 968.937 87.943 967.846 88.173 967.033 87.643 L 950.823 77.084 C 950.01 76.554 949.78 75.464 950.31 74.651 L 950.31 74.651 C 950.839 73.837 951.93 73.607 952.743 74.137 Z" style="stroke:none;fill:#FFFFFF;stroke-miterlimit:10;"/><path d="M 951.949 82.422 L 968.159 92.981 C 968.972 93.511 969.202 94.601 968.673 95.414 L 968.673 95.414 C 968.143 96.228 967.052 96.458 966.239 95.928 L 950.029 85.369 C 949.216 84.839 948.986 83.749 949.516 82.935 L 949.516 82.935 C 950.046 82.122 951.136 81.892 951.949 82.422 Z" style="stroke:none;fill:#FFFFFF;stroke-miterlimit:10;"/><path d="M 974.894 88.566 L 978.138 90.68 C 978.82 91.124 979.014 92.039 978.569 92.721 L 978.26 93.196 C 977.815 93.878 976.901 94.071 976.218 93.627 L 972.974 91.514 C 972.292 91.069 972.099 90.155 972.543 89.473 L 972.853 88.997 C 973.297 88.315 974.212 88.122 974.894 88.566 Z" style="stroke:none;fill:#FFFFFF;stroke-miterlimit:10;"/></g><g><path d="M 896.114 195.682 L 896.114 195.682 C 934.443 220.65 938.505 282.457 905.179 333.616 L 805.75 486.254 C 794.641 503.307 771.777 508.133 754.724 497.024 L 677.624 446.801 C 660.571 435.692 655.745 412.828 666.854 395.775 L 766.283 243.138 C 799.609 191.978 857.784 170.714 896.114 195.682 Z" style="stroke:none;fill:#F0C74B;stroke-miterlimit:10;"/><rect x="881.273" y="104.672" width="50.43" height="150.168" transform="matrix(0.838,0.546,-0.546,0.838,245.053,-465.641)" fill="rgb(240,199,75)"/><path d="M 932.072 92.289 L 976.153 121.003 C 981.269 124.336 982.717 131.195 979.384 136.311 L 978.177 138.165 C 974.844 143.281 967.985 144.729 962.869 141.396 L 918.788 112.682 C 913.672 109.349 912.224 102.49 915.557 97.374 L 916.765 95.52 C 920.097 90.404 926.956 88.956 932.072 92.289 Z" style="stroke:none;fill:#F0C74B;stroke-miterlimit:10;"/></g><g><path d="M 772.216 305.905 L 774.804 307.591 C 778.215 309.813 779.18 314.386 776.959 317.796 L 737.879 377.788 C 735.658 381.199 731.085 382.164 727.674 379.942 L 725.085 378.256 C 721.675 376.034 720.709 371.461 722.931 368.051 L 762.01 308.059 C 764.232 304.648 768.805 303.683 772.216 305.905 Z" style="stroke:none;fill:#FFFFFF;stroke-miterlimit:10;"/><path d="M 722.354 385.279 L 722.354 385.279 C 726.479 387.966 728.025 392.917 725.803 396.327 L 725.803 396.327 C 723.581 399.738 718.428 400.325 714.303 397.638 L 714.303 397.638 C 710.178 394.951 708.633 390 710.855 386.59 L 710.855 386.59 C 713.076 383.179 718.229 382.592 722.354 385.279 Z" style="stroke:none;fill:#FFFFFF;stroke-miterlimit:10;"/></g></g><g><path d=" M 642.236 387.213 Q 479.595 387.213 423.865 387.213 C 368.134 387.213 372.684 466.533 423.865 466.533 C 475.045 466.533 417.099 466.533 477 466.533 C 536.901 466.533 536.901 526.349 477 526.349 C 417.099 526.349 385.195 526.349 331.739 526.349 C 278.284 526.349 280.558 610.871 331.739 610.871 C 382.92 610.871 409.924 610.871 463 610.871 C 516.076 610.871 513.802 660.284 463 660.284 C 412.198 660.284 490.589 660.284 437.513 660.284 C 384.436 660.284 387.469 724 437.513 724 C 487.556 724 1059.265 724 1114.237 724 C 1169.209 724 1166.934 660.284 1114.237 660.284 C 1061.54 660.284 1119.011 660.284 1072 660.284 C 1024.989 660.284 1023.473 610.871 1072 610.871 C 1120.527 610.871 1071.397 610.871 1155.182 610.871 C 1238.966 610.871 1238.966 526.349 1155.182 526.349 C 1071.397 526.349 1134.39 526.349 1087 526.349 C 1039.61 526.349 1037.336 466.533 1087 466.533 C 1136.664 466.533 1172.242 466.533 1251.856 466.533 C 1331.471 466.533 1329.954 387.213 1251.856 387.213 Q 1173.758 387.213 642.236 387.213 Z " fill="rgb(96,178,190)"/><path d=" M 712.282 387.213 Q 644.256 387.213 620.946 387.213 C 597.637 387.213 599.539 456.406 620.946 456.406 C 642.353 456.406 618.117 456.406 643.171 456.406 C 668.225 456.406 668.225 508.584 643.171 508.584 C 618.117 508.584 604.772 508.584 582.414 508.584 C 560.056 508.584 561.007 582.315 582.414 582.315 C 603.821 582.315 615.115 582.315 637.315 582.315 C 659.515 582.315 658.563 625.419 637.315 625.419 C 616.067 625.419 648.855 625.419 626.655 625.419 C 604.455 625.419 605.724 681 626.655 681 C 647.586 681 886.709 681 909.702 681 C 932.694 681 931.743 625.419 909.702 625.419 C 887.661 625.419 911.698 625.419 892.036 625.419 C 872.373 625.419 871.739 582.315 892.036 582.315 C 912.333 582.315 891.783 582.315 926.827 582.315 C 961.871 582.315 961.871 508.584 926.827 508.584 C 891.783 508.584 918.131 508.584 898.31 508.584 C 878.488 508.584 877.537 456.406 898.31 456.406 C 919.082 456.406 933.963 456.406 967.263 456.406 C 1000.562 456.406 999.928 387.213 967.263 387.213 Q 934.597 387.213 712.282 387.213 Z " fill="rgb(118,214,230)"/><path d="M 318 367.213 L 1357 367.213 C 1362.519 367.213 1367 371.694 1367 377.213 L 1367 377.213 C 1367 382.732 1362.519 387.213 1357 387.213 L 318 387.213 C 312.481 387.213 308 382.732 308 377.213 L 308 377.213 C 308 371.694 312.481 367.213 318 367.213 Z" style="stroke:none;fill:#403F3E;stroke-miterlimit:10;"/><path d="M 789 460 L 1015 460 C 1020.519 460 1025 464.481 1025 470 L 1025 470 C 1025 475.519 1020.519 480 1015 480 L 789 480 C 783.481 480 779 475.519 779 470 L 779 470 C 779 464.481 783.481 460 789 460 Z" style="stroke:none;fill:#403F3E;stroke-miterlimit:10;"/><path d="M 576 580 L 885.5 580 C 891.019 580 895.5 584.481 895.5 590 L 895.5 590 C 895.5 595.519 891.019 600 885.5 600 L 576 600 C 570.481 600 566 595.519 566 590 L 566 590 C 566 584.481 570.481 580 576 580 Z" style="stroke:none;fill:#403F3E;stroke-miterlimit:10;"/><path d="M 724.758 460.364 L 750 460.364 C 755.519 460.364 760 464.844 760 470.364 L 760 470.364 C 760 475.883 755.519 480.364 750 480.364 L 724.758 480.364 C 719.238 480.364 714.758 475.883 714.758 470.364 L 714.758 470.364 C 714.758 464.844 719.238 460.364 724.758 460.364 Z" style="stroke:none;fill:#403F3E;stroke-miterlimit:10;"/><path d="M 922.758 580 L 948 580 C 953.519 580 958 584.481 958 590 L 958 590 C 958 595.519 953.519 600 948 600 L 922.758 600 C 917.238 600 912.758 595.519 912.758 590 L 912.758 590 C 912.758 584.481 917.238 580 922.758 580 Z" style="stroke:none;fill:#403F3E;stroke-miterlimit:10;"/><path d="M 513.5 580 L 538.742 580 C 544.262 580 548.742 584.481 548.742 590 L 548.742 590 C 548.742 595.519 544.262 600 538.742 600 L 513.5 600 C 507.981 600 503.5 595.519 503.5 590 L 503.5 590 C 503.5 584.481 507.981 580 513.5 580 Z" style="stroke:none;fill:#403F3E;stroke-miterlimit:10;"/></g></g></svg>